<svg width="33" height="32" viewBox="0 0 33 32" fill="none" xmlns="http://www.w3.org/2000/svg">
<path fill-rule="evenodd" clip-rule="evenodd" d="M30.8857 1.70711C31.2762 1.31658 31.2762 0.683418 30.8857 0.292893C30.4951 -0.097631 29.862 -0.0976311 29.4715 0.292893L16.1568 13.6076L2.84212 0.292893C2.4516 -0.0976307 1.81843 -0.0976311 1.42791 0.292893C1.03739 0.683417 1.03739 1.31658 1.42791 1.70711L14.7426 15.0218L0.292893 29.4715C-0.0976308 29.862 -0.0976312 30.4951 0.292893 30.8857C0.683417 31.2762 1.31658 31.2762 1.70711 30.8857L16.1568 16.436L30.6065 30.8857C30.997 31.2762 31.6302 31.2762 32.0207 30.8857C32.4112 30.4951 32.4112 29.862 32.0207 29.4715L17.571 15.0218L30.8857 1.70711Z" fill="black"/>
</svg>
