<svg width="24" height="18" viewBox="0 0 24 18" fill="none" xmlns="http://www.w3.org/2000/svg">
<path fill-rule="evenodd" clip-rule="evenodd" d="M0 0.75C0 0.335786 0.335786 0 0.75 0H23.25C23.6642 0 24 0.335786 24 0.75C24 1.16421 23.6642 1.5 23.25 1.5H0.75C0.335786 1.5 0 1.16421 0 0.75ZM0 16.75C0 16.3358 0.335786 16 0.75 16H23.25C23.6642 16 24 16.3358 24 16.75C24 17.1642 23.6642 17.5 23.25 17.5H0.75C0.335786 17.5 0 17.1642 0 16.75ZM0.75 8C0.335786 8 0 8.33579 0 8.75C0 9.16421 0.335786 9.5 0.75 9.5H23.25C23.6642 9.5 24 9.16421 24 8.75C24 8.33579 23.6642 8 23.25 8H0.75Z" fill="#006CB6"/>
</svg>
