<svg width="25" height="24" viewBox="0 0 25 24" fill="none" xmlns="http://www.w3.org/2000/svg">
<path fill-rule="evenodd" clip-rule="evenodd" d="M23.1643 1.28033C23.4571 0.987437 23.4571 0.512563 23.1643 0.21967C22.8714 -0.0732233 22.3965 -0.0732233 22.1036 0.21967L12.1176 10.2057L2.13159 0.21967C1.8387 -0.0732231 1.36383 -0.0732233 1.07093 0.21967C0.778039 0.512563 0.778039 0.987437 1.07093 1.28033L11.0569 11.2663L0.21967 22.1036C-0.0732231 22.3965 -0.0732234 22.8714 0.21967 23.1643C0.512563 23.4571 0.987437 23.4571 1.28033 23.1643L12.1176 12.327L22.9549 23.1643C23.2477 23.4571 23.7226 23.4571 24.0155 23.1643C24.3084 22.8714 24.3084 22.3965 24.0155 22.1036L13.1783 11.2663L23.1643 1.28033Z" fill="white"/>
</svg>
