<svg width="224" height="19" viewBox="0 0 224 19" fill="none" xmlns="http://www.w3.org/2000/svg">
<path d="M0.748 1.9V18H10.454V15.125H4.037V1.9H0.748ZM14.4538 18H22.5728V15.217H14.4538V18ZM14.4538 4.683H22.5728V1.9H14.4538V4.683ZM14.4538 10.824H22.1128V8.087H14.4538V10.824ZM12.3378 1.9V18H15.5118V1.9H12.3378ZM28.0454 14.343H36.5554L36.1644 11.744H28.4364L28.0454 14.343ZM32.2544 7.121L34.6694 12.71L34.6234 13.538L36.6934 18H40.4194L32.2544 0.956999L24.0894 18H27.7924L29.9084 13.4L29.8394 12.664L32.2544 7.121ZM42.166 1.9V18H45.524V1.9H42.166ZM47.64 18C49.3266 18 50.7986 17.6703 52.056 17.011C53.3286 16.3517 54.3176 15.424 55.023 14.228C55.7283 13.0167 56.081 11.5907 56.081 9.95C56.081 8.30933 55.7283 6.891 55.023 5.695C54.3176 4.48367 53.3286 3.54833 52.056 2.889C50.7986 2.22967 49.3266 1.9 47.64 1.9H44.282V4.89H47.525C48.2303 4.89 48.8973 4.98967 49.526 5.189C50.1546 5.373 50.7066 5.672 51.182 6.086C51.6573 6.5 52.0253 7.029 52.286 7.673C52.562 8.30167 52.7 9.06067 52.7 9.95C52.7 10.8393 52.562 11.606 52.286 12.25C52.0253 12.8787 51.6573 13.4 51.182 13.814C50.7066 14.228 50.1546 14.5347 49.526 14.734C48.8973 14.918 48.2303 15.01 47.525 15.01H44.282V18H47.64ZM58.6298 1.9V18H61.9648V1.9H58.6298ZM76.8895 1.9V11.882L65.4355 1.095V18H68.6095V8.018L80.0635 18.805V1.9H76.8895ZM91.3815 12.02H96.0045C95.8665 12.5107 95.6671 12.963 95.4065 13.377C95.1458 13.791 94.8238 14.159 94.4405 14.481C94.0571 14.803 93.6048 15.056 93.0835 15.24C92.5775 15.4087 91.9948 15.493 91.3355 15.493C90.3388 15.493 89.4418 15.263 88.6445 14.803C87.8625 14.343 87.2415 13.699 86.7815 12.871C86.3215 12.0277 86.0915 11.054 86.0915 9.95C86.0915 8.83067 86.3215 7.86467 86.7815 7.052C87.2568 6.23933 87.8931 5.61833 88.6905 5.189C89.4878 4.74433 90.3695 4.522 91.3355 4.522C92.3628 4.522 93.2291 4.74433 93.9345 5.189C94.6551 5.61833 95.2148 6.18567 95.6135 6.891L98.4195 5.258C97.9288 4.50667 97.3385 3.86267 96.6485 3.326C95.9738 2.774 95.1918 2.34467 94.3025 2.038C93.4285 1.73133 92.4395 1.578 91.3355 1.578C90.0935 1.578 88.9435 1.77733 87.8855 2.176C86.8275 2.57467 85.9075 3.142 85.1255 3.878C84.3435 4.614 83.7301 5.50333 83.2855 6.546C82.8561 7.57333 82.6415 8.708 82.6415 9.95C82.6415 11.192 82.8485 12.3343 83.2625 13.377C83.6918 14.4197 84.2898 15.3167 85.0565 16.068C85.8385 16.8193 86.7508 17.402 87.7935 17.816C88.8515 18.23 90.0015 18.437 91.2435 18.437C92.5621 18.437 93.7351 18.1993 94.7625 17.724C95.7898 17.2487 96.6485 16.597 97.3385 15.769C98.0438 14.9257 98.5575 13.9597 98.8795 12.871C99.2168 11.7823 99.3625 10.6247 99.3165 9.398H91.3815V12.02ZM165.975 4.775H173.174V1.9H165.975V4.775ZM165.975 11.123H172.944V8.386H165.975V11.123ZM163.859 1.9V18H167.033V1.9H163.859ZM176.075 1.9V12.71C176.075 13.6607 176.229 14.4963 176.535 15.217C176.842 15.9377 177.271 16.5433 177.823 17.034C178.375 17.5247 179.027 17.8927 179.778 18.138C180.53 18.3987 181.35 18.529 182.239 18.529C183.113 18.529 183.926 18.3987 184.677 18.138C185.429 17.8927 186.08 17.5247 186.632 17.034C187.2 16.5433 187.637 15.9377 187.943 15.217C188.25 14.4963 188.403 13.6607 188.403 12.71V1.9H185.114V12.503C185.114 13.423 184.869 14.1667 184.378 14.734C183.903 15.286 183.19 15.562 182.239 15.562C181.289 15.562 180.568 15.286 180.077 14.734C179.602 14.1667 179.364 13.423 179.364 12.503V1.9H176.075ZM203.21 1.9V11.882L191.756 1.095V18H194.93V8.018L206.384 18.805V1.9H203.21ZM209.882 1.9V18H213.24V1.9H209.882ZM215.356 18C217.042 18 218.514 17.6703 219.772 17.011C221.044 16.3517 222.033 15.424 222.739 14.228C223.444 13.0167 223.797 11.5907 223.797 9.95C223.797 8.30933 223.444 6.891 222.739 5.695C222.033 4.48367 221.044 3.54833 219.772 2.889C218.514 2.22967 217.042 1.9 215.356 1.9H211.998V4.89H215.241C215.946 4.89 216.613 4.98967 217.242 5.189C217.87 5.373 218.422 5.672 218.898 6.086C219.373 6.5 219.741 7.029 220.002 7.673C220.278 8.30167 220.416 9.06067 220.416 9.95C220.416 10.8393 220.278 11.606 220.002 12.25C219.741 12.8787 219.373 13.4 218.898 13.814C218.422 14.228 217.87 14.5347 217.242 14.734C216.613 14.918 215.946 15.01 215.241 15.01H211.998V18H215.356Z" fill="#FAFAFA"/>
<path d="M104.118 18H112.237V15.217H104.118V18ZM104.118 4.683H112.237V1.9H104.118V4.683ZM104.118 10.824H111.777V8.087H104.118V10.824ZM102.002 1.9V18H105.176V1.9H102.002ZM115.478 1.9V18H118.836V1.9H115.478ZM120.952 18C122.639 18 124.111 17.6703 125.368 17.011C126.641 16.3517 127.63 15.424 128.335 14.228C129.041 13.0167 129.393 11.5907 129.393 9.95C129.393 8.30933 129.041 6.891 128.335 5.695C127.63 4.48367 126.641 3.54833 125.368 2.889C124.111 2.22967 122.639 1.9 120.952 1.9H117.594V4.89H120.837C121.543 4.89 122.21 4.98967 122.838 5.189C123.467 5.373 124.019 5.672 124.494 6.086C124.97 6.5 125.338 7.029 125.598 7.673C125.874 8.30167 126.012 9.06067 126.012 9.95C126.012 10.8393 125.874 11.606 125.598 12.25C125.338 12.8787 124.97 13.4 124.494 13.814C124.019 14.228 123.467 14.5347 122.838 14.734C122.21 14.918 121.543 15.01 120.837 15.01H117.594V18H120.952ZM139.762 12.02H144.385C144.247 12.5107 144.048 12.963 143.787 13.377C143.527 13.791 143.205 14.159 142.821 14.481C142.438 14.803 141.986 15.056 141.464 15.24C140.958 15.4087 140.376 15.493 139.716 15.493C138.72 15.493 137.823 15.263 137.025 14.803C136.243 14.343 135.622 13.699 135.162 12.871C134.702 12.0277 134.472 11.054 134.472 9.95C134.472 8.83067 134.702 7.86467 135.162 7.052C135.638 6.23933 136.274 5.61833 137.071 5.189C137.869 4.74433 138.75 4.522 139.716 4.522C140.744 4.522 141.61 4.74433 142.315 5.189C143.036 5.61833 143.596 6.18567 143.994 6.891L146.8 5.258C146.31 4.50667 145.719 3.86267 145.029 3.326C144.355 2.774 143.573 2.34467 142.683 2.038C141.809 1.73133 140.82 1.578 139.716 1.578C138.474 1.578 137.324 1.77733 136.266 2.176C135.208 2.57467 134.288 3.142 133.506 3.878C132.724 4.614 132.111 5.50333 131.666 6.546C131.237 7.57333 131.022 8.708 131.022 9.95C131.022 11.192 131.229 12.3343 131.643 13.377C132.073 14.4197 132.671 15.3167 133.437 16.068C134.219 16.8193 135.132 17.402 136.174 17.816C137.232 18.23 138.382 18.437 139.624 18.437C140.943 18.437 142.116 18.1993 143.143 17.724C144.171 17.2487 145.029 16.597 145.719 15.769C146.425 14.9257 146.938 13.9597 147.26 12.871C147.598 11.7823 147.743 10.6247 147.697 9.398H139.762V12.02ZM152.499 18H160.618V15.217H152.499V18ZM152.499 4.683H160.618V1.9H152.499V4.683ZM152.499 10.824H160.158V8.087H152.499V10.824ZM150.383 1.9V18H153.557V1.9H150.383Z" fill="#C6C6C6"/>
</svg>
