<svg width="588" height="155" viewBox="0 0 588 155" fill="none" xmlns="http://www.w3.org/2000/svg">
<path d="M86.7625 100.039V99.578C95.4953 96.1449 102.926 90.0508 108.003 82.1591C112.963 74.3726 115.443 64.7595 115.443 53.32C115.534 46.0878 114.403 38.8922 112.098 32.0367C109.974 25.8019 106.592 20.0695 102.163 15.1947C97.3819 10.1202 91.4455 6.2764 84.8591 3.99065C76.9513 1.21132 68.6113 -0.136323 60.2305 0.0108792H0V32.1953H74.5492V47.5233H0V57.0402H74.5492V72.498H0V154.372H35.8038V104.596H48.5507L80.1872 154.372H122.984L86.7625 100.039Z" fill="#006DB6"/>
<path fill-rule="evenodd" clip-rule="evenodd" d="M278.399 66.5716C279.785 67.0214 281.012 67.8627 281.932 68.9941L289.185 60.9191C287.193 59.1348 284.835 57.8062 282.278 57.0258C279.707 56.2441 277.034 55.8505 274.347 55.8578C272.009 55.8608 269.683 56.1958 267.44 56.8528C265.3 57.4703 263.295 58.4826 261.528 59.8376C259.819 61.1573 258.421 62.8358 257.433 64.7547C256.37 66.8735 255.84 69.2197 255.89 71.5896C255.784 73.8713 256.367 76.1321 257.562 78.0784C258.655 79.6959 260.093 81.0504 261.773 82.0438C263.489 83.0644 265.324 83.8685 267.238 84.4374C269.199 85.0286 271.016 85.6198 272.703 86.211C274.21 86.7099 275.63 87.4395 276.914 88.374C277.452 88.7685 277.886 89.2888 278.178 89.8895C278.469 90.4901 278.609 91.153 278.586 91.8202C278.603 92.623 278.377 93.4122 277.937 94.0841C277.489 94.7285 276.903 95.2653 276.221 95.6558C275.471 96.0751 274.665 96.3859 273.828 96.5787C272.967 96.7781 272.087 96.8797 271.203 96.8815C269.414 96.8768 267.65 96.4676 266.041 95.6847C264.407 94.9083 262.986 93.7452 261.903 92.2961L254.318 100.645C256.485 102.689 259.046 104.269 261.845 105.288C264.654 106.266 267.609 106.754 270.583 106.73C273.019 106.747 275.445 106.427 277.793 105.778C279.942 105.212 281.96 104.232 283.734 102.894C285.457 101.569 286.849 99.8607 287.8 97.9053C288.851 95.7113 289.37 93.3005 289.314 90.8685C289.431 88.5028 288.86 86.1538 287.671 84.1058C286.615 82.4633 285.2 81.0826 283.532 80.0683C281.855 79.0589 280.051 78.2781 278.168 77.7467C276.255 77.1988 274.467 76.6509 272.804 76.1029C271.336 75.6484 269.942 74.9829 268.666 74.1274C267.823 73.4724 267.258 72.5247 267.082 71.4724C266.905 70.4201 267.131 69.3399 267.714 68.4461C268.174 67.7979 268.782 67.2689 269.487 66.9032C270.222 66.5218 271.002 66.2359 271.809 66.0525C272.595 65.8784 273.397 65.7865 274.203 65.7785C275.637 65.7973 277.057 66.0657 278.399 66.5716ZM206.877 81.366C206.849 83.4983 207.206 85.6182 207.93 87.6241C208.596 89.4544 209.632 91.1281 210.972 92.5412C212.311 93.948 213.933 95.0539 215.731 95.7856C219.708 97.3423 224.126 97.3423 228.103 95.7856C229.897 95.0537 231.514 93.9476 232.847 92.5412C234.188 91.1281 235.223 89.4544 235.889 87.6241C237.293 83.5849 237.293 79.1904 235.889 75.1512C235.227 73.3062 234.191 71.6176 232.847 70.1909C231.506 68.7936 229.891 67.689 228.103 66.9465C224.126 65.3898 219.708 65.3898 215.731 66.9465C213.938 67.6887 212.318 68.7932 210.972 70.1909C209.628 71.6176 208.592 73.3062 207.93 75.1512C207.211 77.1433 206.854 79.2482 206.877 81.366ZM195.803 81.366C195.754 77.7634 196.415 74.1864 197.75 70.8398C198.972 67.8076 200.825 65.0699 203.186 62.808C205.563 60.5647 208.375 58.8323 211.448 57.7179C218.222 55.3518 225.598 55.3518 232.371 57.7179C235.444 58.8323 238.256 60.5647 240.634 62.808C242.999 65.0661 244.852 67.8049 246.07 70.8398C248.665 77.6172 248.665 85.1149 246.07 91.8923C244.852 94.9272 242.999 97.6659 240.634 99.924C238.256 102.167 235.444 103.9 232.371 105.014C225.601 107.399 218.219 107.399 211.448 105.014C208.375 103.9 205.563 102.167 203.186 99.924C200.825 97.6622 198.972 94.9245 197.75 91.8923C196.415 88.5457 195.754 84.9686 195.803 81.366ZM162.004 77.1988H168.291C169.242 77.1988 170.266 77.1988 171.333 77.0979C172.321 77.0398 173.293 76.8307 174.217 76.4778C175.06 76.1397 175.8 75.5881 176.366 74.8772C176.981 73.9705 177.28 72.8857 177.216 71.7915C177.287 70.8433 177.07 69.8959 176.594 69.0728C176.119 68.2497 175.406 67.5891 174.549 67.1772C173.707 66.7756 172.806 66.5127 171.881 66.3985C170.926 66.2633 169.962 66.1958 168.997 66.1967H162.004V77.1988ZM151.333 57.17H170.079C172.434 57.1538 174.784 57.3955 177.087 57.891C179.145 58.3127 181.103 59.1252 182.854 60.2847C184.542 61.4171 185.908 62.967 186.82 64.7836C187.858 66.9949 188.352 69.4224 188.262 71.8636C188.352 74.9851 187.415 78.05 185.594 80.5874C183.706 83.0529 180.936 84.6912 177.865 85.1584L190.165 105.591H177.389L167.296 86.2543H162.004V105.591H151.333V57.17ZM300.374 57.17H333.251V67.0186H311.045V76.0308H332.025V85.8794H311.045V95.7279H334.491V105.562H300.374V57.17ZM360.258 57.17H345.767V105.562H356.423V71.1137H356.567L377.692 105.562H391.635V57.17H380.965V90.8108H380.835L360.258 57.17ZM451.65 57.17H484.526V67.0186H462.306V76.0308H483.301V85.8794H462.306V95.7279H485.752V105.562H451.65V57.17ZM424.44 96.5498H414.88L414.808 85.5333H422.868C423.805 85.5385 424.74 85.6108 425.666 85.7496C426.658 85.8592 427.63 86.1117 428.55 86.4994C429.391 86.8404 430.131 87.3915 430.698 88.1C431.298 88.8943 431.599 89.8744 431.549 90.8685C431.581 91.7466 431.383 92.6179 430.976 93.3967C430.569 94.1754 429.967 94.8347 429.227 95.3098C428.532 95.776 427.754 96.104 426.935 96.2759C426.115 96.4517 425.279 96.5435 424.44 96.5498ZM422.594 76.5211H414.88L414.909 66.1967H422.119C422.97 66.1973 423.819 66.2745 424.656 66.4274C425.465 66.5756 426.247 66.8428 426.978 67.2204C427.654 67.5825 428.229 68.1079 428.651 68.7489C429.108 69.5035 429.334 70.376 429.299 71.2579C429.319 72.1108 429.121 72.9547 428.723 73.7092C428.354 74.3774 427.823 74.9426 427.18 75.3531C426.519 75.7692 425.792 76.0714 425.031 76.2471C424.231 76.4248 423.414 76.5166 422.594 76.5211ZM422.306 57.17H404.253V105.519H424.123C426.294 105.513 428.458 105.286 430.583 104.841C432.643 104.422 434.618 103.656 436.423 102.577C438.137 101.55 439.588 100.138 440.662 98.4532C441.816 96.5223 442.387 94.2989 442.306 92.0509C442.312 90.5761 442.059 89.1117 441.556 87.7251C441.077 86.3982 440.342 85.1783 439.393 84.1346C438.439 83.0987 437.306 82.2438 436.048 81.6112C434.69 80.9285 433.228 80.4753 431.722 80.2701V80.1404C434.072 79.4663 436.177 78.1237 437.778 76.2759C439.346 74.363 440.156 71.9411 440.056 69.4699C440.166 67.2421 439.619 65.0313 438.485 63.1109C437.461 61.5401 436.051 60.259 434.39 59.3906C432.588 58.4599 430.635 57.8592 428.622 57.617C426.53 57.3186 424.419 57.1692 422.306 57.17ZM507.698 77.1988H513.985C514.951 77.1988 515.961 77.1988 517.028 77.0979C518.016 77.0428 518.989 76.8336 519.912 76.4778C520.757 76.1433 521.498 75.5911 522.06 74.8772C522.683 73.9738 522.983 72.8865 522.911 71.7915C522.981 70.8452 522.766 69.8997 522.293 69.0772C521.82 68.2546 521.111 67.5928 520.258 67.1772C519.416 66.777 518.515 66.5141 517.59 66.3985C516.635 66.2642 515.671 66.1968 514.706 66.1967H507.727L507.698 77.1988ZM497.042 57.17H515.788C518.143 57.1538 520.493 57.3955 522.796 57.891C524.855 58.3099 526.813 59.1227 528.564 60.2847C530.251 61.4171 531.617 62.967 532.529 64.7836C533.567 66.9949 534.061 69.4224 533.971 71.8636C534.066 74.9836 533.134 78.0486 531.318 80.5874C529.402 83.0523 526.606 84.6801 523.517 85.1296L535.817 105.562H523.041L512.947 86.2254H507.684V105.562H497.028L497.042 57.17ZM578.037 105.706C581.465 104.968 584.778 103.77 587.886 102.145L587.9 76.9392H568.953V86.7878H577.604V94.6464C576.313 95.3088 574.961 95.8448 573.567 96.247C571.614 96.8146 569.587 97.082 567.554 97.0401C565.434 97.0707 563.33 96.6735 561.368 95.8721C559.57 95.1404 557.948 94.0345 556.61 92.6277C555.274 91.2109 554.239 89.5383 553.567 87.7106C552.164 83.6714 552.164 79.277 553.567 75.2377C554.234 73.3947 555.269 71.7069 556.61 70.2774C557.955 68.8798 559.575 67.7752 561.368 67.033C563.33 66.2316 565.434 65.8344 567.554 65.865C569.887 65.7935 572.212 66.1907 574.389 67.033C576.239 67.8331 577.911 68.995 579.306 70.4504L586.833 62.2457C584.395 59.9838 581.454 58.3332 578.253 57.4295C574.772 56.4508 571.17 55.9654 567.554 55.9876C563.991 55.9489 560.45 56.5496 557.1 57.7612C554.035 58.8627 551.228 60.5802 548.852 62.8081C546.491 65.0699 544.638 67.8076 543.416 70.8398C540.82 77.6172 540.82 85.1149 543.416 91.8923C544.638 94.9245 546.491 97.6622 548.852 99.924C551.232 102.171 554.05 103.903 557.129 105.014C560.479 106.226 564.02 106.826 567.583 106.788C571.096 106.792 574.599 106.43 578.037 105.706ZM151.362 121.582V153.594H155.169V139.203H170.079V135.685H155.169V125.101H171.218V121.582H151.362ZM316.942 148.157V121.582H320.749V153.594H315.947L297.404 127.004H297.317V153.594H293.525V121.582H298.312L316.856 148.157H316.942ZM404.253 121.568L390.15 153.579H394.476L397.778 145.721H413.784L417.043 153.579H421.47L407.858 121.568H404.253ZM405.882 126.456H405.983L412.299 142.188H399.235L405.882 126.456ZM433.871 125.101V121.582H458.831V125.101H448.247V153.594H444.454V125.101H433.871ZM482.926 121.582H479.133V153.594H482.926V121.582ZM583.675 148.157V121.582H587.468V153.594H582.68L564.137 127.004H564.05V153.594H560.258V121.582H565.045L583.574 148.157H583.675ZM521.599 150.868C523.364 150.888 525.114 150.534 526.732 149.83C528.246 149.15 529.605 148.169 530.727 146.946C531.852 145.71 532.733 144.272 533.322 142.707C534.572 139.369 534.572 135.692 533.322 132.354C532.729 130.795 531.849 129.362 530.727 128.129C529.605 126.906 528.246 125.925 526.732 125.245C525.108 124.559 523.362 124.206 521.599 124.206C519.836 124.206 518.09 124.559 516.466 125.245C514.948 125.925 513.584 126.906 512.457 128.129C511.334 129.362 510.454 130.795 509.861 132.354C508.612 135.692 508.612 139.369 509.861 142.707C510.45 144.272 511.331 145.71 512.457 146.946C513.584 148.169 514.948 149.15 516.466 149.83C518.083 150.537 519.833 150.891 521.599 150.868ZM521.599 154.401C519.297 154.432 517.012 154 514.879 153.132C512.897 152.333 511.097 151.141 509.587 149.628C508.077 148.106 506.894 146.29 506.112 144.293C504.44 139.974 504.44 135.187 506.112 130.868C506.894 128.871 508.077 127.055 509.587 125.533C511.097 124.021 512.897 122.829 514.879 122.029C519.194 120.337 523.989 120.337 528.304 122.029C530.286 122.829 532.086 124.021 533.596 125.533C535.112 127.051 536.295 128.868 537.071 130.868C538.744 135.187 538.744 139.974 537.071 144.293C536.295 146.293 535.112 148.11 533.596 149.628C532.086 151.141 530.286 152.333 528.304 153.132C526.176 153.999 523.896 154.43 521.599 154.401ZM354.952 150.046H347.742V125.086H354.952C356.68 125.074 358.4 125.317 360.057 125.807C361.556 126.253 362.943 127.015 364.123 128.042C365.312 129.111 366.239 130.438 366.834 131.921C368.161 135.568 368.161 139.565 366.834 143.212C366.239 144.691 365.311 146.013 364.123 147.076C362.947 148.113 361.56 148.88 360.057 149.325C358.4 149.816 356.68 150.059 354.952 150.046ZM356.25 121.553H343.95V153.565H356.25C357.374 153.559 358.495 153.439 359.595 153.204C360.8 152.96 361.972 152.573 363.085 152.051C364.283 151.506 365.411 150.818 366.444 150.003C367.554 149.135 368.526 148.104 369.328 146.946C370.174 145.681 370.826 144.295 371.261 142.837C372.241 139.392 372.241 135.741 371.261 132.296C370.828 130.836 370.177 129.45 369.328 128.186C368.526 127.028 367.554 125.998 366.444 125.129C365.408 124.315 364.28 123.623 363.085 123.067C361.969 122.556 360.798 122.174 359.595 121.928C358.496 121.69 357.375 121.564 356.25 121.553ZM207.209 150.868C208.974 150.891 210.725 150.537 212.342 149.83C213.858 149.154 215.218 148.172 216.337 146.946C217.472 145.715 218.358 144.275 218.947 142.707C220.177 139.365 220.177 135.695 218.947 132.354C218.354 130.792 217.468 129.357 216.337 128.129C215.218 126.903 213.858 125.921 212.342 125.245C210.718 124.559 208.972 124.206 207.209 124.206C205.446 124.206 203.7 124.559 202.076 125.245C200.562 125.925 199.203 126.906 198.081 128.129C196.95 129.357 196.064 130.792 195.471 132.354C194.241 135.695 194.241 139.365 195.471 142.707C196.06 144.275 196.946 145.715 198.081 146.946C199.203 148.169 200.562 149.15 202.076 149.83C203.694 150.536 205.444 150.89 207.209 150.868ZM200.489 153.132C202.616 153.995 204.892 154.427 207.186 154.401C209.482 154.429 211.759 153.998 213.885 153.132C215.865 152.329 217.665 151.138 219.177 149.628C220.688 148.106 221.871 146.29 222.652 144.293C224.31 139.972 224.31 135.19 222.652 130.868C221.871 128.871 220.688 127.055 219.177 125.533C217.665 124.024 215.865 122.832 213.885 122.029C209.565 120.338 204.766 120.338 200.446 122.029C198.469 122.83 196.674 124.022 195.169 125.533C193.664 127.055 192.491 128.871 191.722 130.868C190.065 135.19 190.065 139.972 191.722 144.293C192.503 146.294 193.692 148.111 195.212 149.628C196.718 151.139 198.513 152.331 200.489 153.132ZM269.228 146.369C269.666 144.748 269.884 143.075 269.877 141.395V121.568H266.07V140.832C266.077 142.093 265.941 143.351 265.666 144.581C265.427 145.731 264.967 146.823 264.311 147.797C263.668 148.744 262.801 149.517 261.787 150.046C260.53 150.586 259.176 150.864 257.807 150.864C256.439 150.864 255.085 150.586 253.828 150.046C252.807 149.521 251.934 148.747 251.29 147.797C250.64 146.82 250.18 145.729 249.934 144.581C249.659 143.351 249.524 142.093 249.531 140.832V121.568H245.738V141.395C245.731 143.075 245.949 144.748 246.387 146.369C246.789 147.876 247.496 149.285 248.464 150.508C249.463 151.751 250.743 152.739 252.198 153.392C255.797 154.814 259.803 154.814 263.402 153.392C264.858 152.739 266.137 151.751 267.137 150.508C268.103 149.282 268.814 147.875 269.228 146.369Z" fill="#FF674C"/>
</svg>
