<svg width="32" height="32" viewBox="0 0 32 32" fill="none" xmlns="http://www.w3.org/2000/svg">
<path fill-rule="evenodd" clip-rule="evenodd" d="M16 32C24.8366 32 32 24.8366 32 16C32 7.16344 24.8366 0 16 0C7.16344 0 0 7.16344 0 16C0 24.8366 7.16344 32 16 32ZM26 16.0611C26 10.5045 21.5229 6 16 6C10.4771 6 6 10.5045 6 16.0611C6 21.0828 9.65684 25.2452 14.4375 26V18.9694H11.8984V16.0611H14.4375V13.8445C14.4375 11.323 15.9305 9.93012 18.2146 9.93012C18.3514 9.93012 18.4889 9.93319 18.6249 9.93857C19.5767 9.97618 20.4531 10.1266 20.4531 10.1266V12.6026H19.1922C19.174 12.6026 19.156 12.6028 19.1381 12.6031C17.9387 12.6253 17.5625 13.3899 17.5625 14.1747V16.0611H20.3359L19.8926 18.9694H17.5625V26C22.3432 25.2452 26 21.0828 26 16.0611Z" fill="#41403F"/>
</svg>
