<svg width="32" height="32" viewBox="0 0 32 32" fill="none" xmlns="http://www.w3.org/2000/svg">
<path fill-rule="evenodd" clip-rule="evenodd" d="M16 32C24.8366 32 32 24.8366 32 16C32 7.16344 24.8366 0 16 0C7.16344 0 0 7.16344 0 16C0 24.8366 7.16344 32 16 32ZM6.97882 22.757C6.64765 22.757 6.32101 22.7372 6 22.6986C7.81587 23.8861 9.97271 24.5789 12.2899 24.5789C19.8372 24.5789 23.9644 18.2014 23.9644 12.6706C23.9644 12.4891 23.9604 12.3086 23.9525 12.1292C24.7542 11.5391 25.4499 10.8019 26 9.96258C25.2641 10.2955 24.4733 10.5204 23.6433 10.6216C24.4905 10.1036 25.1411 9.28339 25.4475 8.30609C24.6547 8.78568 23.7765 9.134 22.8419 9.32175C22.0933 8.50831 21.027 8 19.8468 8C17.5807 8 15.7434 9.87393 15.7434 12.1853C15.7434 12.5133 15.7798 12.8328 15.8497 13.1391C12.4395 12.9646 9.41607 11.2983 7.3923 8.76612C7.0391 9.38428 6.83675 10.1032 6.83675 10.8703C6.83675 12.3223 7.56121 13.6034 8.6622 14.3539C7.98954 14.3322 7.35689 14.1439 6.80361 13.8304C6.80332 13.8479 6.80332 13.8654 6.80332 13.883C6.80332 15.9109 8.21764 17.6026 10.0948 17.987C9.75047 18.0827 9.38798 18.1338 9.01372 18.1338C8.74933 18.1338 8.49226 18.1076 8.24178 18.0587C8.76389 19.7216 10.2792 20.9316 12.0748 20.9654C10.6705 22.0879 8.9012 22.757 6.97882 22.757Z" fill="#41403F"/>
</svg>
