<svg width="32" height="32" viewBox="0 0 32 32" fill="none" xmlns="http://www.w3.org/2000/svg">
<path fill-rule="evenodd" clip-rule="evenodd" d="M16 32C24.8366 32 32 24.8366 32 16C32 7.16344 24.8366 0 16 0C7.16344 0 0 7.16344 0 16C0 24.8366 7.16344 32 16 32ZM12.3399 22.2435L16.4431 22.3159C16.4496 22.3159 16.4627 22.3159 16.4626 22.3256C18.7476 22.3668 20.9738 22.2376 23.2524 22.0771C25.0709 21.9543 25.5019 20.683 25.7271 19.167C26.0078 17.3361 26.0698 15.4831 25.923 13.6396C25.9159 13.5522 25.9091 13.464 25.9022 13.3752C25.7653 11.6113 25.6114 9.62891 23.4482 9.26347C22.988 9.18477 22.518 9.11563 22.0512 9.10298C17.6314 8.965 13.1723 8.92995 8.7426 9.22571C7.4304 9.30721 6.58188 10.0561 6.36627 11.3112C5.98434 13.548 5.90599 15.8446 6.10838 18.1002C6.1109 18.1278 6.11343 18.1555 6.11596 18.1832C6.26063 19.77 6.42968 21.6241 8.37701 22.0075C9.42538 22.2177 10.4928 22.2261 11.5622 22.2345C11.8214 22.2366 12.0807 22.2386 12.3399 22.2435ZM16.1614 17.298C15.4542 17.6898 14.7453 18.0824 14.0308 18.4778V12.8213C14.8183 13.2567 15.6003 13.69 16.3832 14.1239C17.2974 14.6305 18.2127 15.1377 19.1394 15.6496C18.1426 16.2006 17.1536 16.7484 16.1614 17.298Z" fill="#41403F"/>
</svg>
